<mxfile host="app.diagrams.net" agent="Mozilla/5.0 (Macintosh; Intel Mac OS X 10_15_7) AppleWebKit/537.36 (KHTML, like Gecko) Chrome/131.0.0.0 Safari/537.36" version="26.0.2">
  <diagram name="Page-1" id="SBFZ99m77JHKjxJjiRP0">
    <mxGraphModel dx="4097" dy="1920" grid="1" gridSize="10" guides="1" tooltips="1" connect="1" arrows="1" fold="1" page="1" pageScale="1" pageWidth="850" pageHeight="1100" math="0" shadow="0">
      <root>
        <mxCell id="0" />
        <mxCell id="1" parent="0" />
        <mxCell id="8dTDUSrH829Y-WECvbkg-270" value="" style="rounded=0;whiteSpace=wrap;html=1;" vertex="1" parent="1">
          <mxGeometry x="1990" y="1430" width="1800" height="720" as="geometry" />
        </mxCell>
        <mxCell id="M_gnL3viA9wApIf26CQV-90" value="" style="rounded=0;whiteSpace=wrap;html=1;" parent="1" vertex="1">
          <mxGeometry y="10" width="1290" height="1510" as="geometry" />
        </mxCell>
        <mxCell id="M_gnL3viA9wApIf26CQV-3" value="" style="edgeStyle=orthogonalEdgeStyle;rounded=0;orthogonalLoop=1;jettySize=auto;html=1;" parent="1" source="M_gnL3viA9wApIf26CQV-69" target="M_gnL3viA9wApIf26CQV-2" edge="1">
          <mxGeometry relative="1" as="geometry" />
        </mxCell>
        <mxCell id="M_gnL3viA9wApIf26CQV-1" value="User/Provider" style="shape=umlActor;verticalLabelPosition=bottom;verticalAlign=top;html=1;outlineConnect=0;" parent="1" vertex="1">
          <mxGeometry x="30" y="319" width="30" height="60" as="geometry" />
        </mxCell>
        <mxCell id="M_gnL3viA9wApIf26CQV-9" value="" style="edgeStyle=orthogonalEdgeStyle;rounded=0;orthogonalLoop=1;jettySize=auto;html=1;" parent="1" source="M_gnL3viA9wApIf26CQV-71" target="M_gnL3viA9wApIf26CQV-4" edge="1">
          <mxGeometry relative="1" as="geometry" />
        </mxCell>
        <mxCell id="M_gnL3viA9wApIf26CQV-2" value="Signup/login" style="rounded=1;whiteSpace=wrap;html=1;fillColor=#f8cecc;strokeColor=#b85450;" parent="1" vertex="1">
          <mxGeometry x="190" y="320" width="120" height="60" as="geometry" />
        </mxCell>
        <mxCell id="M_gnL3viA9wApIf26CQV-13" style="edgeStyle=orthogonalEdgeStyle;rounded=0;orthogonalLoop=1;jettySize=auto;html=1;" parent="1" source="M_gnL3viA9wApIf26CQV-4" target="M_gnL3viA9wApIf26CQV-11" edge="1">
          <mxGeometry relative="1" as="geometry" />
        </mxCell>
        <mxCell id="M_gnL3viA9wApIf26CQV-14" style="edgeStyle=orthogonalEdgeStyle;rounded=0;orthogonalLoop=1;jettySize=auto;html=1;" parent="1" source="M_gnL3viA9wApIf26CQV-4" target="M_gnL3viA9wApIf26CQV-12" edge="1">
          <mxGeometry relative="1" as="geometry" />
        </mxCell>
        <mxCell id="M_gnL3viA9wApIf26CQV-4" value="Wallet" style="rounded=1;whiteSpace=wrap;html=1;fillColor=#dae8fc;strokeColor=#6c8ebf;" parent="1" vertex="1">
          <mxGeometry x="390" y="320" width="200" height="60" as="geometry" />
        </mxCell>
        <mxCell id="M_gnL3viA9wApIf26CQV-32" value="" style="edgeStyle=orthogonalEdgeStyle;rounded=0;orthogonalLoop=1;jettySize=auto;html=1;" parent="1" source="M_gnL3viA9wApIf26CQV-5" target="M_gnL3viA9wApIf26CQV-31" edge="1">
          <mxGeometry relative="1" as="geometry" />
        </mxCell>
        <mxCell id="M_gnL3viA9wApIf26CQV-38" value="" style="edgeStyle=orthogonalEdgeStyle;rounded=0;orthogonalLoop=1;jettySize=auto;html=1;" parent="1" source="M_gnL3viA9wApIf26CQV-5" target="M_gnL3viA9wApIf26CQV-37" edge="1">
          <mxGeometry relative="1" as="geometry" />
        </mxCell>
        <mxCell id="M_gnL3viA9wApIf26CQV-5" value="Payments/Subscription" style="rounded=1;whiteSpace=wrap;html=1;fillColor=#dae8fc;strokeColor=#6c8ebf;" parent="1" vertex="1">
          <mxGeometry x="810" y="591" width="200" height="60" as="geometry" />
        </mxCell>
        <mxCell id="M_gnL3viA9wApIf26CQV-48" value="" style="edgeStyle=orthogonalEdgeStyle;rounded=0;orthogonalLoop=1;jettySize=auto;html=1;" parent="1" source="M_gnL3viA9wApIf26CQV-6" target="M_gnL3viA9wApIf26CQV-47" edge="1">
          <mxGeometry relative="1" as="geometry" />
        </mxCell>
        <mxCell id="M_gnL3viA9wApIf26CQV-6" value="Warrents" style="rounded=1;whiteSpace=wrap;html=1;fillColor=#dae8fc;strokeColor=#6c8ebf;" parent="1" vertex="1">
          <mxGeometry x="810" y="1101" width="200" height="60" as="geometry" />
        </mxCell>
        <mxCell id="M_gnL3viA9wApIf26CQV-50" style="edgeStyle=orthogonalEdgeStyle;rounded=0;orthogonalLoop=1;jettySize=auto;html=1;entryX=0.5;entryY=1;entryDx=0;entryDy=0;" parent="1" source="M_gnL3viA9wApIf26CQV-7" target="M_gnL3viA9wApIf26CQV-35" edge="1">
          <mxGeometry relative="1" as="geometry">
            <mxPoint x="490" y="581" as="targetPoint" />
          </mxGeometry>
        </mxCell>
        <mxCell id="M_gnL3viA9wApIf26CQV-7" value="Rewards" style="rounded=1;whiteSpace=wrap;html=1;fillColor=#dae8fc;strokeColor=#6c8ebf;" parent="1" vertex="1">
          <mxGeometry x="810" y="1351" width="200" height="60" as="geometry" />
        </mxCell>
        <mxCell id="M_gnL3viA9wApIf26CQV-16" style="edgeStyle=orthogonalEdgeStyle;rounded=0;orthogonalLoop=1;jettySize=auto;html=1;" parent="1" source="M_gnL3viA9wApIf26CQV-11" target="M_gnL3viA9wApIf26CQV-15" edge="1">
          <mxGeometry relative="1" as="geometry" />
        </mxCell>
        <mxCell id="M_gnL3viA9wApIf26CQV-11" value="Onramp" style="ellipse;whiteSpace=wrap;html=1;aspect=fixed;fillColor=#d5e8d4;strokeColor=#82b366;" parent="1" vertex="1">
          <mxGeometry x="680" y="260" width="80" height="80" as="geometry" />
        </mxCell>
        <mxCell id="M_gnL3viA9wApIf26CQV-17" style="edgeStyle=orthogonalEdgeStyle;rounded=0;orthogonalLoop=1;jettySize=auto;html=1;" parent="1" source="M_gnL3viA9wApIf26CQV-12" target="M_gnL3viA9wApIf26CQV-15" edge="1">
          <mxGeometry relative="1" as="geometry" />
        </mxCell>
        <mxCell id="M_gnL3viA9wApIf26CQV-12" value="Bridge" style="ellipse;whiteSpace=wrap;html=1;aspect=fixed;fillColor=#d5e8d4;strokeColor=#82b366;" parent="1" vertex="1">
          <mxGeometry x="680" y="360" width="80" height="80" as="geometry" />
        </mxCell>
        <mxCell id="M_gnL3viA9wApIf26CQV-22" style="edgeStyle=orthogonalEdgeStyle;rounded=0;orthogonalLoop=1;jettySize=auto;html=1;entryX=0.5;entryY=0;entryDx=0;entryDy=0;" parent="1" source="M_gnL3viA9wApIf26CQV-15" target="M_gnL3viA9wApIf26CQV-4" edge="1">
          <mxGeometry relative="1" as="geometry">
            <Array as="points">
              <mxPoint x="910" y="200" />
              <mxPoint x="490" y="200" />
            </Array>
          </mxGeometry>
        </mxCell>
        <mxCell id="M_gnL3viA9wApIf26CQV-27" style="edgeStyle=orthogonalEdgeStyle;rounded=0;orthogonalLoop=1;jettySize=auto;html=1;" parent="1" source="M_gnL3viA9wApIf26CQV-15" target="M_gnL3viA9wApIf26CQV-23" edge="1">
          <mxGeometry relative="1" as="geometry" />
        </mxCell>
        <mxCell id="M_gnL3viA9wApIf26CQV-28" style="edgeStyle=orthogonalEdgeStyle;rounded=0;orthogonalLoop=1;jettySize=auto;html=1;" parent="1" source="M_gnL3viA9wApIf26CQV-15" target="M_gnL3viA9wApIf26CQV-24" edge="1">
          <mxGeometry relative="1" as="geometry" />
        </mxCell>
        <mxCell id="M_gnL3viA9wApIf26CQV-29" style="edgeStyle=orthogonalEdgeStyle;rounded=0;orthogonalLoop=1;jettySize=auto;html=1;" parent="1" source="M_gnL3viA9wApIf26CQV-15" target="M_gnL3viA9wApIf26CQV-5" edge="1">
          <mxGeometry relative="1" as="geometry" />
        </mxCell>
        <mxCell id="M_gnL3viA9wApIf26CQV-15" value="Native / Subscription assets" style="rounded=1;whiteSpace=wrap;html=1;" parent="1" vertex="1">
          <mxGeometry x="850" y="320" width="120" height="60" as="geometry" />
        </mxCell>
        <mxCell id="M_gnL3viA9wApIf26CQV-23" value="Send" style="ellipse;whiteSpace=wrap;html=1;aspect=fixed;fillColor=#d5e8d4;strokeColor=#82b366;" parent="1" vertex="1">
          <mxGeometry x="1044" y="260" width="80" height="80" as="geometry" />
        </mxCell>
        <mxCell id="M_gnL3viA9wApIf26CQV-24" value="Recieve" style="ellipse;whiteSpace=wrap;html=1;aspect=fixed;fillColor=#d5e8d4;strokeColor=#82b366;" parent="1" vertex="1">
          <mxGeometry x="1044" y="360" width="80" height="80" as="geometry" />
        </mxCell>
        <mxCell id="M_gnL3viA9wApIf26CQV-41" value="" style="edgeStyle=orthogonalEdgeStyle;rounded=0;orthogonalLoop=1;jettySize=auto;html=1;" parent="1" source="M_gnL3viA9wApIf26CQV-30" target="M_gnL3viA9wApIf26CQV-40" edge="1">
          <mxGeometry relative="1" as="geometry" />
        </mxCell>
        <mxCell id="8dTDUSrH829Y-WECvbkg-1" style="edgeStyle=orthogonalEdgeStyle;rounded=0;orthogonalLoop=1;jettySize=auto;html=1;entryX=0;entryY=0.5;entryDx=0;entryDy=0;" edge="1" parent="1" source="M_gnL3viA9wApIf26CQV-30" target="M_gnL3viA9wApIf26CQV-5">
          <mxGeometry relative="1" as="geometry">
            <Array as="points">
              <mxPoint x="700" y="891" />
              <mxPoint x="700" y="621" />
            </Array>
          </mxGeometry>
        </mxCell>
        <mxCell id="8dTDUSrH829Y-WECvbkg-2" value="Recurring Payments" style="edgeLabel;html=1;align=center;verticalAlign=middle;resizable=0;points=[];" vertex="1" connectable="0" parent="8dTDUSrH829Y-WECvbkg-1">
          <mxGeometry x="-0.2122" relative="1" as="geometry">
            <mxPoint y="1" as="offset" />
          </mxGeometry>
        </mxCell>
        <mxCell id="M_gnL3viA9wApIf26CQV-30" value="Q-Spots" style="rounded=1;whiteSpace=wrap;html=1;fillColor=#dae8fc;strokeColor=#6c8ebf;" parent="1" vertex="1">
          <mxGeometry x="810" y="861" width="200" height="60" as="geometry" />
        </mxCell>
        <mxCell id="M_gnL3viA9wApIf26CQV-33" value="" style="edgeStyle=orthogonalEdgeStyle;rounded=0;orthogonalLoop=1;jettySize=auto;html=1;" parent="1" source="M_gnL3viA9wApIf26CQV-31" target="M_gnL3viA9wApIf26CQV-30" edge="1">
          <mxGeometry relative="1" as="geometry" />
        </mxCell>
        <mxCell id="M_gnL3viA9wApIf26CQV-36" style="edgeStyle=orthogonalEdgeStyle;rounded=0;orthogonalLoop=1;jettySize=auto;html=1;entryX=0.5;entryY=1;entryDx=0;entryDy=0;" parent="1" source="M_gnL3viA9wApIf26CQV-31" target="M_gnL3viA9wApIf26CQV-35" edge="1">
          <mxGeometry relative="1" as="geometry">
            <mxPoint x="490" y="581" as="targetPoint" />
          </mxGeometry>
        </mxCell>
        <mxCell id="M_gnL3viA9wApIf26CQV-31" value="Usage&lt;br&gt;NFT / Cert / Attestation" style="ellipse;whiteSpace=wrap;html=1;aspect=fixed;fillColor=#d5e8d4;strokeColor=#82b366;" parent="1" vertex="1">
          <mxGeometry x="865" y="701" width="90" height="90" as="geometry" />
        </mxCell>
        <mxCell id="M_gnL3viA9wApIf26CQV-35" value="DID" style="rounded=1;whiteSpace=wrap;html=1;fillColor=#dae8fc;strokeColor=#6c8ebf;" parent="1" vertex="1">
          <mxGeometry x="390" y="400" width="200" height="60" as="geometry" />
        </mxCell>
        <mxCell id="M_gnL3viA9wApIf26CQV-39" style="edgeStyle=orthogonalEdgeStyle;rounded=0;orthogonalLoop=1;jettySize=auto;html=1;entryX=1;entryY=0.5;entryDx=0;entryDy=0;" parent="1" source="M_gnL3viA9wApIf26CQV-37" target="M_gnL3viA9wApIf26CQV-31" edge="1">
          <mxGeometry relative="1" as="geometry">
            <Array as="points">
              <mxPoint x="1084" y="746" />
            </Array>
          </mxGeometry>
        </mxCell>
        <mxCell id="M_gnL3viA9wApIf26CQV-37" value="Pay" style="ellipse;whiteSpace=wrap;html=1;aspect=fixed;fillColor=#d5e8d4;strokeColor=#82b366;" parent="1" vertex="1">
          <mxGeometry x="1044" y="581" width="80" height="80" as="geometry" />
        </mxCell>
        <mxCell id="M_gnL3viA9wApIf26CQV-42" value="" style="edgeStyle=orthogonalEdgeStyle;rounded=0;orthogonalLoop=1;jettySize=auto;html=1;" parent="1" source="M_gnL3viA9wApIf26CQV-40" target="M_gnL3viA9wApIf26CQV-6" edge="1">
          <mxGeometry relative="1" as="geometry" />
        </mxCell>
        <mxCell id="M_gnL3viA9wApIf26CQV-46" value="Yes" style="edgeLabel;html=1;align=center;verticalAlign=middle;resizable=0;points=[];" parent="M_gnL3viA9wApIf26CQV-42" vertex="1" connectable="0">
          <mxGeometry x="-0.2" y="2" relative="1" as="geometry">
            <mxPoint as="offset" />
          </mxGeometry>
        </mxCell>
        <mxCell id="M_gnL3viA9wApIf26CQV-44" value="" style="edgeStyle=orthogonalEdgeStyle;rounded=0;orthogonalLoop=1;jettySize=auto;html=1;" parent="1" source="M_gnL3viA9wApIf26CQV-40" target="M_gnL3viA9wApIf26CQV-43" edge="1">
          <mxGeometry relative="1" as="geometry" />
        </mxCell>
        <mxCell id="M_gnL3viA9wApIf26CQV-45" value="Connectivity" style="edgeLabel;html=1;align=center;verticalAlign=middle;resizable=0;points=[];" parent="M_gnL3viA9wApIf26CQV-44" vertex="1" connectable="0">
          <mxGeometry x="-0.5971" y="-1" relative="1" as="geometry">
            <mxPoint x="42" y="-1" as="offset" />
          </mxGeometry>
        </mxCell>
        <mxCell id="M_gnL3viA9wApIf26CQV-40" value="Issues" style="rhombus;whiteSpace=wrap;html=1;" parent="1" vertex="1">
          <mxGeometry x="870" y="971" width="80" height="80" as="geometry" />
        </mxCell>
        <mxCell id="M_gnL3viA9wApIf26CQV-43" value="" style="verticalLabelPosition=bottom;html=1;verticalAlign=top;align=center;strokeColor=none;fillColor=#00BEF2;shape=mxgraph.azure.mobile;pointerEvents=1;" parent="1" vertex="1">
          <mxGeometry x="1089" y="986" width="35" height="50" as="geometry" />
        </mxCell>
        <mxCell id="M_gnL3viA9wApIf26CQV-49" value="" style="edgeStyle=orthogonalEdgeStyle;rounded=0;orthogonalLoop=1;jettySize=auto;html=1;" parent="1" source="M_gnL3viA9wApIf26CQV-47" target="M_gnL3viA9wApIf26CQV-7" edge="1">
          <mxGeometry relative="1" as="geometry" />
        </mxCell>
        <mxCell id="M_gnL3viA9wApIf26CQV-47" value="Valid" style="rhombus;whiteSpace=wrap;html=1;" parent="1" vertex="1">
          <mxGeometry x="870" y="1201" width="80" height="80" as="geometry" />
        </mxCell>
        <mxCell id="M_gnL3viA9wApIf26CQV-68" value="" style="edgeStyle=orthogonalEdgeStyle;rounded=0;orthogonalLoop=1;jettySize=auto;html=1;" parent="1" source="M_gnL3viA9wApIf26CQV-1" target="M_gnL3viA9wApIf26CQV-69" edge="1">
          <mxGeometry relative="1" as="geometry">
            <mxPoint x="60" y="350" as="sourcePoint" />
            <mxPoint x="190" y="350" as="targetPoint" />
          </mxGeometry>
        </mxCell>
        <mxCell id="M_gnL3viA9wApIf26CQV-69" value="1" style="ellipse;whiteSpace=wrap;html=1;aspect=fixed;rotation=0;gradientColor=#223548;strokeColor=none;gradientDirection=east;fillColor=#5b738b;rounded=0;pointerEvents=0;fontFamily=Helvetica;fontSize=16;fontColor=#FFFFFF;spacingTop=4;spacingBottom=4;spacingLeft=4;spacingRight=4;points=[];fontStyle=1" parent="1" vertex="1">
          <mxGeometry x="105" y="335" width="30" height="30" as="geometry" />
        </mxCell>
        <mxCell id="M_gnL3viA9wApIf26CQV-70" value="" style="edgeStyle=orthogonalEdgeStyle;rounded=0;orthogonalLoop=1;jettySize=auto;html=1;" parent="1" source="M_gnL3viA9wApIf26CQV-2" target="M_gnL3viA9wApIf26CQV-71" edge="1">
          <mxGeometry relative="1" as="geometry">
            <mxPoint x="310" y="350" as="sourcePoint" />
            <mxPoint x="390" y="350" as="targetPoint" />
          </mxGeometry>
        </mxCell>
        <mxCell id="M_gnL3viA9wApIf26CQV-71" value="2" style="ellipse;whiteSpace=wrap;html=1;aspect=fixed;rotation=0;gradientColor=#223548;strokeColor=none;gradientDirection=east;fillColor=#5b738b;rounded=0;pointerEvents=0;fontFamily=Helvetica;fontSize=16;fontColor=#FFFFFF;spacingTop=4;spacingBottom=4;spacingLeft=4;spacingRight=4;points=[];fontStyle=1" parent="1" vertex="1">
          <mxGeometry x="325" y="336" width="30" height="30" as="geometry" />
        </mxCell>
        <mxCell id="M_gnL3viA9wApIf26CQV-74" value="3" style="ellipse;whiteSpace=wrap;html=1;aspect=fixed;rotation=0;gradientColor=#223548;strokeColor=none;gradientDirection=east;fillColor=#5b738b;rounded=0;pointerEvents=0;fontFamily=Helvetica;fontSize=16;fontColor=#FFFFFF;spacingTop=4;spacingBottom=4;spacingLeft=4;spacingRight=4;points=[];fontStyle=1" parent="1" vertex="1">
          <mxGeometry x="640" y="336" width="30" height="30" as="geometry" />
        </mxCell>
        <mxCell id="M_gnL3viA9wApIf26CQV-75" value="4" style="ellipse;whiteSpace=wrap;html=1;aspect=fixed;rotation=0;gradientColor=#223548;strokeColor=none;gradientDirection=east;fillColor=#5b738b;rounded=0;pointerEvents=0;fontFamily=Helvetica;fontSize=16;fontColor=#FFFFFF;spacingTop=4;spacingBottom=4;spacingLeft=4;spacingRight=4;points=[];fontStyle=1" parent="1" vertex="1">
          <mxGeometry x="770" y="336" width="30" height="30" as="geometry" />
        </mxCell>
        <mxCell id="M_gnL3viA9wApIf26CQV-76" value="5" style="ellipse;whiteSpace=wrap;html=1;aspect=fixed;rotation=0;gradientColor=#223548;strokeColor=none;gradientDirection=east;fillColor=#5b738b;rounded=0;pointerEvents=0;fontFamily=Helvetica;fontSize=16;fontColor=#FFFFFF;spacingTop=4;spacingBottom=4;spacingLeft=4;spacingRight=4;points=[];fontStyle=1" parent="1" vertex="1">
          <mxGeometry x="1015" y="337" width="30" height="30" as="geometry" />
        </mxCell>
        <mxCell id="M_gnL3viA9wApIf26CQV-77" value="6" style="ellipse;whiteSpace=wrap;html=1;aspect=fixed;rotation=0;gradientColor=#223548;strokeColor=none;gradientDirection=east;fillColor=#5b738b;rounded=0;pointerEvents=0;fontFamily=Helvetica;fontSize=16;fontColor=#FFFFFF;spacingTop=4;spacingBottom=4;spacingLeft=4;spacingRight=4;points=[];fontStyle=1;align=center;verticalAlign=middle;" parent="1" vertex="1">
          <mxGeometry x="895" y="535" width="30" height="30" as="geometry" />
        </mxCell>
        <mxCell id="M_gnL3viA9wApIf26CQV-78" value="7" style="ellipse;whiteSpace=wrap;html=1;aspect=fixed;rotation=0;gradientColor=#223548;strokeColor=none;gradientDirection=east;fillColor=#5b738b;rounded=0;pointerEvents=0;fontFamily=Helvetica;fontSize=16;fontColor=#FFFFFF;spacingTop=4;spacingBottom=4;spacingLeft=4;spacingRight=4;points=[];fontStyle=1" parent="1" vertex="1">
          <mxGeometry x="1015" y="640" width="30" height="30" as="geometry" />
        </mxCell>
        <mxCell id="M_gnL3viA9wApIf26CQV-79" value="8" style="ellipse;whiteSpace=wrap;html=1;aspect=fixed;rotation=0;gradientColor=#223548;strokeColor=none;gradientDirection=east;fillColor=#5b738b;rounded=0;pointerEvents=0;fontFamily=Helvetica;fontSize=16;fontColor=#FFFFFF;spacingTop=4;spacingBottom=4;spacingLeft=4;spacingRight=4;points=[];fontStyle=1" parent="1" vertex="1">
          <mxGeometry x="860" y="670" width="30" height="30" as="geometry" />
        </mxCell>
        <mxCell id="M_gnL3viA9wApIf26CQV-80" value="9" style="ellipse;whiteSpace=wrap;html=1;aspect=fixed;rotation=0;gradientColor=#223548;strokeColor=none;gradientDirection=east;fillColor=#5b738b;rounded=0;pointerEvents=0;fontFamily=Helvetica;fontSize=16;fontColor=#FFFFFF;spacingTop=4;spacingBottom=4;spacingLeft=4;spacingRight=4;points=[];fontStyle=1" parent="1" vertex="1">
          <mxGeometry x="860" y="820" width="30" height="30" as="geometry" />
        </mxCell>
        <mxCell id="M_gnL3viA9wApIf26CQV-81" value="10" style="ellipse;whiteSpace=wrap;html=1;aspect=fixed;rotation=0;gradientColor=#223548;strokeColor=none;gradientDirection=east;fillColor=#5b738b;rounded=0;pointerEvents=0;fontFamily=Helvetica;fontSize=16;fontColor=#FFFFFF;spacingTop=4;spacingBottom=4;spacingLeft=4;spacingRight=4;points=[];fontStyle=1" parent="1" vertex="1">
          <mxGeometry x="1000" y="960" width="30" height="30" as="geometry" />
        </mxCell>
        <mxCell id="M_gnL3viA9wApIf26CQV-82" value="11" style="ellipse;whiteSpace=wrap;html=1;aspect=fixed;rotation=0;gradientColor=#223548;strokeColor=none;gradientDirection=east;fillColor=#5b738b;rounded=0;pointerEvents=0;fontFamily=Helvetica;fontSize=16;fontColor=#FFFFFF;spacingTop=4;spacingBottom=4;spacingLeft=4;spacingRight=4;points=[];fontStyle=1" parent="1" vertex="1">
          <mxGeometry x="861" y="1060" width="30" height="30" as="geometry" />
        </mxCell>
        <mxCell id="M_gnL3viA9wApIf26CQV-83" value="12" style="ellipse;whiteSpace=wrap;html=1;aspect=fixed;rotation=0;gradientColor=#223548;strokeColor=none;gradientDirection=east;fillColor=#5b738b;rounded=0;pointerEvents=0;fontFamily=Helvetica;fontSize=16;fontColor=#FFFFFF;spacingTop=4;spacingBottom=4;spacingLeft=4;spacingRight=4;points=[];fontStyle=1" parent="1" vertex="1">
          <mxGeometry x="861" y="1310" width="30" height="30" as="geometry" />
        </mxCell>
        <mxCell id="M_gnL3viA9wApIf26CQV-84" value="13" style="ellipse;whiteSpace=wrap;html=1;aspect=fixed;rotation=0;gradientColor=#223548;strokeColor=none;gradientDirection=east;fillColor=#5b738b;rounded=0;pointerEvents=0;fontFamily=Helvetica;fontSize=16;fontColor=#FFFFFF;spacingTop=4;spacingBottom=4;spacingLeft=4;spacingRight=4;points=[];fontStyle=1" parent="1" vertex="1">
          <mxGeometry x="970" y="1201" width="30" height="30" as="geometry" />
        </mxCell>
        <mxCell id="8dTDUSrH829Y-WECvbkg-6" value="" style="edgeStyle=orthogonalEdgeStyle;rounded=0;orthogonalLoop=1;jettySize=auto;html=1;" edge="1" parent="1" source="8dTDUSrH829Y-WECvbkg-63" target="8dTDUSrH829Y-WECvbkg-9">
          <mxGeometry relative="1" as="geometry" />
        </mxCell>
        <mxCell id="8dTDUSrH829Y-WECvbkg-7" value="User/Provider" style="shape=umlActor;verticalLabelPosition=bottom;verticalAlign=top;html=1;outlineConnect=0;" vertex="1" parent="1">
          <mxGeometry x="2030" y="1679" width="30" height="60" as="geometry" />
        </mxCell>
        <mxCell id="8dTDUSrH829Y-WECvbkg-8" value="" style="edgeStyle=orthogonalEdgeStyle;rounded=0;orthogonalLoop=1;jettySize=auto;html=1;" edge="1" parent="1" source="8dTDUSrH829Y-WECvbkg-65" target="8dTDUSrH829Y-WECvbkg-12">
          <mxGeometry relative="1" as="geometry" />
        </mxCell>
        <mxCell id="8dTDUSrH829Y-WECvbkg-81" style="edgeStyle=orthogonalEdgeStyle;rounded=0;orthogonalLoop=1;jettySize=auto;html=1;entryX=0;entryY=0.5;entryDx=0;entryDy=0;" edge="1" parent="1" source="8dTDUSrH829Y-WECvbkg-9" target="8dTDUSrH829Y-WECvbkg-80">
          <mxGeometry relative="1" as="geometry">
            <Array as="points">
              <mxPoint x="2250" y="1940" />
            </Array>
          </mxGeometry>
        </mxCell>
        <mxCell id="8dTDUSrH829Y-WECvbkg-9" value="Signup/login" style="rounded=1;whiteSpace=wrap;html=1;fillColor=#f8cecc;strokeColor=#b85450;" vertex="1" parent="1">
          <mxGeometry x="2190" y="1680" width="120" height="60" as="geometry" />
        </mxCell>
        <mxCell id="8dTDUSrH829Y-WECvbkg-10" style="edgeStyle=orthogonalEdgeStyle;rounded=0;orthogonalLoop=1;jettySize=auto;html=1;" edge="1" parent="1" source="8dTDUSrH829Y-WECvbkg-12" target="8dTDUSrH829Y-WECvbkg-26">
          <mxGeometry relative="1" as="geometry" />
        </mxCell>
        <mxCell id="8dTDUSrH829Y-WECvbkg-11" style="edgeStyle=orthogonalEdgeStyle;rounded=0;orthogonalLoop=1;jettySize=auto;html=1;" edge="1" parent="1" source="8dTDUSrH829Y-WECvbkg-12" target="8dTDUSrH829Y-WECvbkg-28">
          <mxGeometry relative="1" as="geometry" />
        </mxCell>
        <mxCell id="8dTDUSrH829Y-WECvbkg-12" value="Wallet" style="rounded=1;whiteSpace=wrap;html=1;fillColor=#dae8fc;strokeColor=#6c8ebf;" vertex="1" parent="1">
          <mxGeometry x="2390" y="1680" width="200" height="60" as="geometry" />
        </mxCell>
        <mxCell id="8dTDUSrH829Y-WECvbkg-14" value="" style="edgeStyle=orthogonalEdgeStyle;rounded=0;orthogonalLoop=1;jettySize=auto;html=1;" edge="1" parent="1" source="8dTDUSrH829Y-WECvbkg-16">
          <mxGeometry relative="1" as="geometry">
            <mxPoint x="1014" y="1911" as="targetPoint" />
          </mxGeometry>
        </mxCell>
        <mxCell id="8dTDUSrH829Y-WECvbkg-15" style="edgeStyle=orthogonalEdgeStyle;rounded=0;orthogonalLoop=1;jettySize=auto;html=1;entryX=0;entryY=0.5;entryDx=0;entryDy=0;" edge="1" parent="1" source="8dTDUSrH829Y-WECvbkg-16">
          <mxGeometry relative="1" as="geometry">
            <Array as="points">
              <mxPoint x="994" y="1911" />
              <mxPoint x="994" y="1801" />
            </Array>
            <mxPoint x="1014" y="1801" as="targetPoint" />
          </mxGeometry>
        </mxCell>
        <mxCell id="8dTDUSrH829Y-WECvbkg-22" style="edgeStyle=orthogonalEdgeStyle;rounded=0;orthogonalLoop=1;jettySize=auto;html=1;entryX=1;entryY=0.5;entryDx=0;entryDy=0;" edge="1" parent="1" target="8dTDUSrH829Y-WECvbkg-56">
          <mxGeometry relative="1" as="geometry">
            <mxPoint x="1150" y="1801" as="sourcePoint" />
          </mxGeometry>
        </mxCell>
        <mxCell id="8dTDUSrH829Y-WECvbkg-23" style="edgeStyle=orthogonalEdgeStyle;rounded=0;orthogonalLoop=1;jettySize=auto;html=1;entryX=1;entryY=0.5;entryDx=0;entryDy=0;" edge="1" parent="1" target="8dTDUSrH829Y-WECvbkg-61">
          <mxGeometry relative="1" as="geometry">
            <Array as="points">
              <mxPoint x="1310" y="1801" />
              <mxPoint x="1310" y="1911" />
            </Array>
            <mxPoint x="1321" y="1801" as="sourcePoint" />
          </mxGeometry>
        </mxCell>
        <mxCell id="8dTDUSrH829Y-WECvbkg-25" style="edgeStyle=orthogonalEdgeStyle;rounded=0;orthogonalLoop=1;jettySize=auto;html=1;" edge="1" parent="1" source="8dTDUSrH829Y-WECvbkg-26" target="8dTDUSrH829Y-WECvbkg-33">
          <mxGeometry relative="1" as="geometry" />
        </mxCell>
        <mxCell id="8dTDUSrH829Y-WECvbkg-26" value="Onramp" style="ellipse;whiteSpace=wrap;html=1;aspect=fixed;fillColor=#d5e8d4;strokeColor=#82b366;" vertex="1" parent="1">
          <mxGeometry x="2680" y="1620" width="80" height="80" as="geometry" />
        </mxCell>
        <mxCell id="8dTDUSrH829Y-WECvbkg-27" style="edgeStyle=orthogonalEdgeStyle;rounded=0;orthogonalLoop=1;jettySize=auto;html=1;" edge="1" parent="1" source="8dTDUSrH829Y-WECvbkg-28" target="8dTDUSrH829Y-WECvbkg-33">
          <mxGeometry relative="1" as="geometry" />
        </mxCell>
        <mxCell id="8dTDUSrH829Y-WECvbkg-28" value="Bridge" style="ellipse;whiteSpace=wrap;html=1;aspect=fixed;fillColor=#d5e8d4;strokeColor=#82b366;" vertex="1" parent="1">
          <mxGeometry x="2680" y="1720" width="80" height="80" as="geometry" />
        </mxCell>
        <mxCell id="8dTDUSrH829Y-WECvbkg-30" style="edgeStyle=orthogonalEdgeStyle;rounded=0;orthogonalLoop=1;jettySize=auto;html=1;" edge="1" parent="1" source="8dTDUSrH829Y-WECvbkg-33" target="8dTDUSrH829Y-WECvbkg-34">
          <mxGeometry relative="1" as="geometry" />
        </mxCell>
        <mxCell id="8dTDUSrH829Y-WECvbkg-31" style="edgeStyle=orthogonalEdgeStyle;rounded=0;orthogonalLoop=1;jettySize=auto;html=1;" edge="1" parent="1" source="8dTDUSrH829Y-WECvbkg-33" target="8dTDUSrH829Y-WECvbkg-35">
          <mxGeometry relative="1" as="geometry" />
        </mxCell>
        <mxCell id="8dTDUSrH829Y-WECvbkg-33" value="Native / Subscription assets" style="rounded=1;whiteSpace=wrap;html=1;" vertex="1" parent="1">
          <mxGeometry x="2850" y="1680" width="120" height="60" as="geometry" />
        </mxCell>
        <mxCell id="8dTDUSrH829Y-WECvbkg-34" value="Send" style="ellipse;whiteSpace=wrap;html=1;aspect=fixed;fillColor=#d5e8d4;strokeColor=#82b366;" vertex="1" parent="1">
          <mxGeometry x="3044" y="1620" width="80" height="80" as="geometry" />
        </mxCell>
        <mxCell id="8dTDUSrH829Y-WECvbkg-35" value="Recieve" style="ellipse;whiteSpace=wrap;html=1;aspect=fixed;fillColor=#d5e8d4;strokeColor=#82b366;" vertex="1" parent="1">
          <mxGeometry x="3044" y="1720" width="80" height="80" as="geometry" />
        </mxCell>
        <mxCell id="8dTDUSrH829Y-WECvbkg-43" value="DID" style="rounded=1;whiteSpace=wrap;html=1;fillColor=#dae8fc;strokeColor=#6c8ebf;" vertex="1" parent="1">
          <mxGeometry x="2390" y="1760" width="200" height="60" as="geometry" />
        </mxCell>
        <mxCell id="8dTDUSrH829Y-WECvbkg-45" value="" style="edgeStyle=orthogonalEdgeStyle;rounded=0;orthogonalLoop=1;jettySize=auto;html=1;" edge="1" parent="1" source="8dTDUSrH829Y-WECvbkg-46">
          <mxGeometry relative="1" as="geometry">
            <mxPoint x="1150" y="1911" as="targetPoint" />
          </mxGeometry>
        </mxCell>
        <mxCell id="8dTDUSrH829Y-WECvbkg-59" value="" style="edgeStyle=orthogonalEdgeStyle;rounded=0;orthogonalLoop=1;jettySize=auto;html=1;entryX=1;entryY=0.5;entryDx=0;entryDy=0;" edge="1" parent="1" target="8dTDUSrH829Y-WECvbkg-60">
          <mxGeometry relative="1" as="geometry">
            <mxPoint x="1321" y="1801" as="sourcePoint" />
            <mxPoint x="1094" y="1801" as="targetPoint" />
          </mxGeometry>
        </mxCell>
        <mxCell id="8dTDUSrH829Y-WECvbkg-62" value="" style="edgeStyle=orthogonalEdgeStyle;rounded=0;orthogonalLoop=1;jettySize=auto;html=1;" edge="1" parent="1" source="8dTDUSrH829Y-WECvbkg-7" target="8dTDUSrH829Y-WECvbkg-63">
          <mxGeometry relative="1" as="geometry">
            <mxPoint x="2060" y="1710" as="sourcePoint" />
            <mxPoint x="2190" y="1710" as="targetPoint" />
          </mxGeometry>
        </mxCell>
        <mxCell id="8dTDUSrH829Y-WECvbkg-63" value="1" style="ellipse;whiteSpace=wrap;html=1;aspect=fixed;rotation=0;gradientColor=#223548;strokeColor=none;gradientDirection=east;fillColor=#5b738b;rounded=0;pointerEvents=0;fontFamily=Helvetica;fontSize=16;fontColor=#FFFFFF;spacingTop=4;spacingBottom=4;spacingLeft=4;spacingRight=4;points=[];fontStyle=1" vertex="1" parent="1">
          <mxGeometry x="2105" y="1695" width="30" height="30" as="geometry" />
        </mxCell>
        <mxCell id="8dTDUSrH829Y-WECvbkg-64" value="" style="edgeStyle=orthogonalEdgeStyle;rounded=0;orthogonalLoop=1;jettySize=auto;html=1;" edge="1" parent="1" source="8dTDUSrH829Y-WECvbkg-9" target="8dTDUSrH829Y-WECvbkg-65">
          <mxGeometry relative="1" as="geometry">
            <mxPoint x="2310" y="1710" as="sourcePoint" />
            <mxPoint x="2390" y="1710" as="targetPoint" />
          </mxGeometry>
        </mxCell>
        <mxCell id="8dTDUSrH829Y-WECvbkg-65" value="2" style="ellipse;whiteSpace=wrap;html=1;aspect=fixed;rotation=0;gradientColor=#223548;strokeColor=none;gradientDirection=east;fillColor=#5b738b;rounded=0;pointerEvents=0;fontFamily=Helvetica;fontSize=16;fontColor=#FFFFFF;spacingTop=4;spacingBottom=4;spacingLeft=4;spacingRight=4;points=[];fontStyle=1" vertex="1" parent="1">
          <mxGeometry x="2325" y="1696" width="30" height="30" as="geometry" />
        </mxCell>
        <mxCell id="8dTDUSrH829Y-WECvbkg-66" value="3" style="ellipse;whiteSpace=wrap;html=1;aspect=fixed;rotation=0;gradientColor=#223548;strokeColor=none;gradientDirection=east;fillColor=#5b738b;rounded=0;pointerEvents=0;fontFamily=Helvetica;fontSize=16;fontColor=#FFFFFF;spacingTop=4;spacingBottom=4;spacingLeft=4;spacingRight=4;points=[];fontStyle=1" vertex="1" parent="1">
          <mxGeometry x="2640" y="1696" width="30" height="30" as="geometry" />
        </mxCell>
        <mxCell id="8dTDUSrH829Y-WECvbkg-67" value="4" style="ellipse;whiteSpace=wrap;html=1;aspect=fixed;rotation=0;gradientColor=#223548;strokeColor=none;gradientDirection=east;fillColor=#5b738b;rounded=0;pointerEvents=0;fontFamily=Helvetica;fontSize=16;fontColor=#FFFFFF;spacingTop=4;spacingBottom=4;spacingLeft=4;spacingRight=4;points=[];fontStyle=1" vertex="1" parent="1">
          <mxGeometry x="2770" y="1696" width="30" height="30" as="geometry" />
        </mxCell>
        <mxCell id="8dTDUSrH829Y-WECvbkg-68" value="5" style="ellipse;whiteSpace=wrap;html=1;aspect=fixed;rotation=0;gradientColor=#223548;strokeColor=none;gradientDirection=east;fillColor=#5b738b;rounded=0;pointerEvents=0;fontFamily=Helvetica;fontSize=16;fontColor=#FFFFFF;spacingTop=4;spacingBottom=4;spacingLeft=4;spacingRight=4;points=[];fontStyle=1" vertex="1" parent="1">
          <mxGeometry x="3015" y="1697" width="30" height="30" as="geometry" />
        </mxCell>
        <mxCell id="8dTDUSrH829Y-WECvbkg-87" value="" style="edgeStyle=orthogonalEdgeStyle;rounded=0;orthogonalLoop=1;jettySize=auto;html=1;" edge="1" parent="1" source="8dTDUSrH829Y-WECvbkg-80" target="8dTDUSrH829Y-WECvbkg-84">
          <mxGeometry relative="1" as="geometry" />
        </mxCell>
        <mxCell id="8dTDUSrH829Y-WECvbkg-104" value="" style="edgeStyle=orthogonalEdgeStyle;rounded=0;orthogonalLoop=1;jettySize=auto;html=1;" edge="1" parent="1" source="8dTDUSrH829Y-WECvbkg-80" target="8dTDUSrH829Y-WECvbkg-103">
          <mxGeometry relative="1" as="geometry" />
        </mxCell>
        <mxCell id="8dTDUSrH829Y-WECvbkg-80" value="My Devices" style="rounded=1;whiteSpace=wrap;html=1;fillColor=#dae8fc;strokeColor=#6c8ebf;" vertex="1" parent="1">
          <mxGeometry x="2390" y="1910" width="200" height="60" as="geometry" />
        </mxCell>
        <mxCell id="8dTDUSrH829Y-WECvbkg-88" value="" style="edgeStyle=orthogonalEdgeStyle;rounded=0;orthogonalLoop=1;jettySize=auto;html=1;" edge="1" parent="1" source="8dTDUSrH829Y-WECvbkg-84" target="8dTDUSrH829Y-WECvbkg-85">
          <mxGeometry relative="1" as="geometry" />
        </mxCell>
        <mxCell id="8dTDUSrH829Y-WECvbkg-84" value="Lisst/Relist" style="rounded=1;whiteSpace=wrap;html=1;fillColor=#f8cecc;strokeColor=#b85450;" vertex="1" parent="1">
          <mxGeometry x="2660" y="1910" width="120" height="60" as="geometry" />
        </mxCell>
        <mxCell id="8dTDUSrH829Y-WECvbkg-89" value="" style="edgeStyle=orthogonalEdgeStyle;rounded=0;orthogonalLoop=1;jettySize=auto;html=1;" edge="1" parent="1" source="8dTDUSrH829Y-WECvbkg-85" target="8dTDUSrH829Y-WECvbkg-86">
          <mxGeometry relative="1" as="geometry" />
        </mxCell>
        <mxCell id="8dTDUSrH829Y-WECvbkg-93" value="" style="edgeStyle=orthogonalEdgeStyle;rounded=0;orthogonalLoop=1;jettySize=auto;html=1;" edge="1" parent="1" source="8dTDUSrH829Y-WECvbkg-85" target="8dTDUSrH829Y-WECvbkg-92">
          <mxGeometry relative="1" as="geometry" />
        </mxCell>
        <mxCell id="8dTDUSrH829Y-WECvbkg-85" value="Initail&lt;div&gt;Listing&lt;/div&gt;" style="rhombus;whiteSpace=wrap;html=1;" vertex="1" parent="1">
          <mxGeometry x="2840" y="1900" width="80" height="80" as="geometry" />
        </mxCell>
        <mxCell id="8dTDUSrH829Y-WECvbkg-96" value="" style="edgeStyle=orthogonalEdgeStyle;rounded=0;orthogonalLoop=1;jettySize=auto;html=1;" edge="1" parent="1" source="8dTDUSrH829Y-WECvbkg-86" target="8dTDUSrH829Y-WECvbkg-95">
          <mxGeometry relative="1" as="geometry" />
        </mxCell>
        <mxCell id="8dTDUSrH829Y-WECvbkg-86" value="Active Network Q-Spot" style="rounded=1;whiteSpace=wrap;html=1;fillColor=#dae8fc;strokeColor=#6c8ebf;" vertex="1" parent="1">
          <mxGeometry x="2984" y="1910" width="200" height="60" as="geometry" />
        </mxCell>
        <mxCell id="8dTDUSrH829Y-WECvbkg-94" style="edgeStyle=orthogonalEdgeStyle;rounded=0;orthogonalLoop=1;jettySize=auto;html=1;" edge="1" parent="1" source="8dTDUSrH829Y-WECvbkg-92" target="8dTDUSrH829Y-WECvbkg-86">
          <mxGeometry relative="1" as="geometry" />
        </mxCell>
        <mxCell id="8dTDUSrH829Y-WECvbkg-92" value="Stake" style="ellipse;whiteSpace=wrap;html=1;aspect=fixed;fillColor=#d5e8d4;strokeColor=#82b366;" vertex="1" parent="1">
          <mxGeometry x="2840" y="2040" width="80" height="80" as="geometry" />
        </mxCell>
        <mxCell id="8dTDUSrH829Y-WECvbkg-257" value="" style="edgeStyle=orthogonalEdgeStyle;rounded=0;orthogonalLoop=1;jettySize=auto;html=1;" edge="1" parent="1" source="8dTDUSrH829Y-WECvbkg-95" target="8dTDUSrH829Y-WECvbkg-256">
          <mxGeometry relative="1" as="geometry" />
        </mxCell>
        <mxCell id="8dTDUSrH829Y-WECvbkg-95" value="Payments/Subscription" style="rounded=1;whiteSpace=wrap;html=1;fillColor=#dae8fc;strokeColor=#6c8ebf;" vertex="1" parent="1">
          <mxGeometry x="3265" y="1910" width="200" height="60" as="geometry" />
        </mxCell>
        <mxCell id="8dTDUSrH829Y-WECvbkg-98" value="" style="edgeStyle=orthogonalEdgeStyle;rounded=0;orthogonalLoop=1;jettySize=auto;html=1;" edge="1" parent="1" source="8dTDUSrH829Y-WECvbkg-97" target="8dTDUSrH829Y-WECvbkg-95">
          <mxGeometry relative="1" as="geometry" />
        </mxCell>
        <mxCell id="8dTDUSrH829Y-WECvbkg-97" value="Payments" style="ellipse;whiteSpace=wrap;html=1;aspect=fixed;fillColor=#d5e8d4;strokeColor=#82b366;" vertex="1" parent="1">
          <mxGeometry x="3277" y="1720" width="80" height="80" as="geometry" />
        </mxCell>
        <mxCell id="8dTDUSrH829Y-WECvbkg-101" value="" style="edgeStyle=orthogonalEdgeStyle;rounded=0;orthogonalLoop=1;jettySize=auto;html=1;" edge="1" parent="1" source="8dTDUSrH829Y-WECvbkg-100" target="8dTDUSrH829Y-WECvbkg-95">
          <mxGeometry relative="1" as="geometry" />
        </mxCell>
        <mxCell id="8dTDUSrH829Y-WECvbkg-100" value="Rewards" style="ellipse;whiteSpace=wrap;html=1;aspect=fixed;fillColor=#d5e8d4;strokeColor=#82b366;" vertex="1" parent="1">
          <mxGeometry x="3373" y="1720" width="80" height="80" as="geometry" />
        </mxCell>
        <mxCell id="8dTDUSrH829Y-WECvbkg-103" value="Delist" style="rounded=1;whiteSpace=wrap;html=1;fillColor=#f8cecc;strokeColor=#b85450;" vertex="1" parent="1">
          <mxGeometry x="2430" y="2050" width="120" height="60" as="geometry" />
        </mxCell>
        <mxCell id="8dTDUSrH829Y-WECvbkg-180" value="" style="edgeStyle=orthogonalEdgeStyle;rounded=0;orthogonalLoop=1;jettySize=auto;html=1;" edge="1" parent="1" source="8dTDUSrH829Y-WECvbkg-239" target="8dTDUSrH829Y-WECvbkg-183">
          <mxGeometry relative="1" as="geometry" />
        </mxCell>
        <mxCell id="8dTDUSrH829Y-WECvbkg-181" value="User/Provider" style="shape=umlActor;verticalLabelPosition=bottom;verticalAlign=top;html=1;outlineConnect=0;" vertex="1" parent="1">
          <mxGeometry x="2340" y="299" width="30" height="60" as="geometry" />
        </mxCell>
        <mxCell id="8dTDUSrH829Y-WECvbkg-182" value="" style="edgeStyle=orthogonalEdgeStyle;rounded=0;orthogonalLoop=1;jettySize=auto;html=1;" edge="1" parent="1" source="8dTDUSrH829Y-WECvbkg-241" target="8dTDUSrH829Y-WECvbkg-186">
          <mxGeometry relative="1" as="geometry" />
        </mxCell>
        <mxCell id="8dTDUSrH829Y-WECvbkg-183" value="Signup/login" style="rounded=1;whiteSpace=wrap;html=1;fillColor=#f8cecc;strokeColor=#b85450;" vertex="1" parent="1">
          <mxGeometry x="2500" y="300" width="120" height="60" as="geometry" />
        </mxCell>
        <mxCell id="8dTDUSrH829Y-WECvbkg-184" style="edgeStyle=orthogonalEdgeStyle;rounded=0;orthogonalLoop=1;jettySize=auto;html=1;" edge="1" parent="1" source="8dTDUSrH829Y-WECvbkg-186" target="8dTDUSrH829Y-WECvbkg-200">
          <mxGeometry relative="1" as="geometry" />
        </mxCell>
        <mxCell id="8dTDUSrH829Y-WECvbkg-185" style="edgeStyle=orthogonalEdgeStyle;rounded=0;orthogonalLoop=1;jettySize=auto;html=1;" edge="1" parent="1" source="8dTDUSrH829Y-WECvbkg-186" target="8dTDUSrH829Y-WECvbkg-202">
          <mxGeometry relative="1" as="geometry" />
        </mxCell>
        <mxCell id="8dTDUSrH829Y-WECvbkg-186" value="Wallet" style="rounded=1;whiteSpace=wrap;html=1;fillColor=#dae8fc;strokeColor=#6c8ebf;" vertex="1" parent="1">
          <mxGeometry x="2700" y="300" width="200" height="60" as="geometry" />
        </mxCell>
        <mxCell id="8dTDUSrH829Y-WECvbkg-187" value="" style="edgeStyle=orthogonalEdgeStyle;rounded=0;orthogonalLoop=1;jettySize=auto;html=1;" edge="1" parent="1" source="8dTDUSrH829Y-WECvbkg-190" target="8dTDUSrH829Y-WECvbkg-216">
          <mxGeometry relative="1" as="geometry" />
        </mxCell>
        <mxCell id="8dTDUSrH829Y-WECvbkg-188" value="" style="edgeStyle=orthogonalEdgeStyle;rounded=0;orthogonalLoop=1;jettySize=auto;html=1;" edge="1" parent="1" source="8dTDUSrH829Y-WECvbkg-190" target="8dTDUSrH829Y-WECvbkg-220">
          <mxGeometry relative="1" as="geometry" />
        </mxCell>
        <mxCell id="8dTDUSrH829Y-WECvbkg-189" style="edgeStyle=orthogonalEdgeStyle;rounded=0;orthogonalLoop=1;jettySize=auto;html=1;entryX=0;entryY=0.5;entryDx=0;entryDy=0;" edge="1" parent="1" source="8dTDUSrH829Y-WECvbkg-190" target="8dTDUSrH829Y-WECvbkg-230">
          <mxGeometry relative="1" as="geometry">
            <Array as="points">
              <mxPoint x="3334" y="601" />
              <mxPoint x="3334" y="491" />
            </Array>
          </mxGeometry>
        </mxCell>
        <mxCell id="8dTDUSrH829Y-WECvbkg-190" value="Payments/Subscription" style="rounded=1;whiteSpace=wrap;html=1;fillColor=#dae8fc;strokeColor=#6c8ebf;" vertex="1" parent="1">
          <mxGeometry x="3120" y="571" width="200" height="60" as="geometry" />
        </mxCell>
        <mxCell id="8dTDUSrH829Y-WECvbkg-191" value="" style="edgeStyle=orthogonalEdgeStyle;rounded=0;orthogonalLoop=1;jettySize=auto;html=1;" edge="1" parent="1" source="8dTDUSrH829Y-WECvbkg-192" target="8dTDUSrH829Y-WECvbkg-229">
          <mxGeometry relative="1" as="geometry" />
        </mxCell>
        <mxCell id="8dTDUSrH829Y-WECvbkg-192" value="Warrents" style="rounded=1;whiteSpace=wrap;html=1;fillColor=#dae8fc;strokeColor=#6c8ebf;" vertex="1" parent="1">
          <mxGeometry x="3120" y="1081" width="200" height="60" as="geometry" />
        </mxCell>
        <mxCell id="8dTDUSrH829Y-WECvbkg-193" style="edgeStyle=orthogonalEdgeStyle;rounded=0;orthogonalLoop=1;jettySize=auto;html=1;entryX=0.5;entryY=1;entryDx=0;entryDy=0;" edge="1" parent="1" source="8dTDUSrH829Y-WECvbkg-195" target="8dTDUSrH829Y-WECvbkg-217">
          <mxGeometry relative="1" as="geometry">
            <mxPoint x="2800" y="561" as="targetPoint" />
          </mxGeometry>
        </mxCell>
        <mxCell id="8dTDUSrH829Y-WECvbkg-194" style="edgeStyle=orthogonalEdgeStyle;rounded=0;orthogonalLoop=1;jettySize=auto;html=1;" edge="1" parent="1" source="8dTDUSrH829Y-WECvbkg-195" target="8dTDUSrH829Y-WECvbkg-237">
          <mxGeometry relative="1" as="geometry" />
        </mxCell>
        <mxCell id="8dTDUSrH829Y-WECvbkg-195" value="Rewards" style="rounded=1;whiteSpace=wrap;html=1;fillColor=#dae8fc;strokeColor=#6c8ebf;" vertex="1" parent="1">
          <mxGeometry x="3120" y="1331" width="200" height="60" as="geometry" />
        </mxCell>
        <mxCell id="8dTDUSrH829Y-WECvbkg-196" style="edgeStyle=orthogonalEdgeStyle;rounded=0;orthogonalLoop=1;jettySize=auto;html=1;entryX=1;entryY=0.5;entryDx=0;entryDy=0;" edge="1" parent="1" source="8dTDUSrH829Y-WECvbkg-236" target="8dTDUSrH829Y-WECvbkg-230">
          <mxGeometry relative="1" as="geometry" />
        </mxCell>
        <mxCell id="8dTDUSrH829Y-WECvbkg-197" style="edgeStyle=orthogonalEdgeStyle;rounded=0;orthogonalLoop=1;jettySize=auto;html=1;entryX=1;entryY=0.5;entryDx=0;entryDy=0;" edge="1" parent="1" source="8dTDUSrH829Y-WECvbkg-198" target="8dTDUSrH829Y-WECvbkg-237">
          <mxGeometry relative="1" as="geometry">
            <Array as="points">
              <mxPoint x="3650" y="491" />
              <mxPoint x="3650" y="601" />
            </Array>
          </mxGeometry>
        </mxCell>
        <mxCell id="8dTDUSrH829Y-WECvbkg-198" value="My Devices" style="rounded=1;whiteSpace=wrap;html=1;fillColor=#dae8fc;strokeColor=#6c8ebf;" vertex="1" parent="1">
          <mxGeometry x="3661" y="461" width="200" height="60" as="geometry" />
        </mxCell>
        <mxCell id="8dTDUSrH829Y-WECvbkg-199" style="edgeStyle=orthogonalEdgeStyle;rounded=0;orthogonalLoop=1;jettySize=auto;html=1;" edge="1" parent="1" source="8dTDUSrH829Y-WECvbkg-200" target="8dTDUSrH829Y-WECvbkg-207">
          <mxGeometry relative="1" as="geometry" />
        </mxCell>
        <mxCell id="8dTDUSrH829Y-WECvbkg-200" value="Onramp" style="ellipse;whiteSpace=wrap;html=1;aspect=fixed;fillColor=#d5e8d4;strokeColor=#82b366;" vertex="1" parent="1">
          <mxGeometry x="2990" y="240" width="80" height="80" as="geometry" />
        </mxCell>
        <mxCell id="8dTDUSrH829Y-WECvbkg-201" style="edgeStyle=orthogonalEdgeStyle;rounded=0;orthogonalLoop=1;jettySize=auto;html=1;" edge="1" parent="1" source="8dTDUSrH829Y-WECvbkg-202" target="8dTDUSrH829Y-WECvbkg-207">
          <mxGeometry relative="1" as="geometry" />
        </mxCell>
        <mxCell id="8dTDUSrH829Y-WECvbkg-202" value="Bridge" style="ellipse;whiteSpace=wrap;html=1;aspect=fixed;fillColor=#d5e8d4;strokeColor=#82b366;" vertex="1" parent="1">
          <mxGeometry x="2990" y="340" width="80" height="80" as="geometry" />
        </mxCell>
        <mxCell id="8dTDUSrH829Y-WECvbkg-203" style="edgeStyle=orthogonalEdgeStyle;rounded=0;orthogonalLoop=1;jettySize=auto;html=1;entryX=0.5;entryY=0;entryDx=0;entryDy=0;" edge="1" parent="1" source="8dTDUSrH829Y-WECvbkg-207" target="8dTDUSrH829Y-WECvbkg-186">
          <mxGeometry relative="1" as="geometry">
            <Array as="points">
              <mxPoint x="3220" y="180" />
              <mxPoint x="2800" y="180" />
            </Array>
          </mxGeometry>
        </mxCell>
        <mxCell id="8dTDUSrH829Y-WECvbkg-204" style="edgeStyle=orthogonalEdgeStyle;rounded=0;orthogonalLoop=1;jettySize=auto;html=1;" edge="1" parent="1" source="8dTDUSrH829Y-WECvbkg-207" target="8dTDUSrH829Y-WECvbkg-208">
          <mxGeometry relative="1" as="geometry" />
        </mxCell>
        <mxCell id="8dTDUSrH829Y-WECvbkg-205" style="edgeStyle=orthogonalEdgeStyle;rounded=0;orthogonalLoop=1;jettySize=auto;html=1;" edge="1" parent="1" source="8dTDUSrH829Y-WECvbkg-207" target="8dTDUSrH829Y-WECvbkg-209">
          <mxGeometry relative="1" as="geometry" />
        </mxCell>
        <mxCell id="8dTDUSrH829Y-WECvbkg-206" style="edgeStyle=orthogonalEdgeStyle;rounded=0;orthogonalLoop=1;jettySize=auto;html=1;" edge="1" parent="1" source="8dTDUSrH829Y-WECvbkg-207" target="8dTDUSrH829Y-WECvbkg-190">
          <mxGeometry relative="1" as="geometry" />
        </mxCell>
        <mxCell id="8dTDUSrH829Y-WECvbkg-207" value="Native / Subscription assets" style="rounded=1;whiteSpace=wrap;html=1;" vertex="1" parent="1">
          <mxGeometry x="3160" y="300" width="120" height="60" as="geometry" />
        </mxCell>
        <mxCell id="8dTDUSrH829Y-WECvbkg-208" value="Send" style="ellipse;whiteSpace=wrap;html=1;aspect=fixed;fillColor=#d5e8d4;strokeColor=#82b366;" vertex="1" parent="1">
          <mxGeometry x="3354" y="240" width="80" height="80" as="geometry" />
        </mxCell>
        <mxCell id="8dTDUSrH829Y-WECvbkg-209" value="Recieve" style="ellipse;whiteSpace=wrap;html=1;aspect=fixed;fillColor=#d5e8d4;strokeColor=#82b366;" vertex="1" parent="1">
          <mxGeometry x="3354" y="340" width="80" height="80" as="geometry" />
        </mxCell>
        <mxCell id="8dTDUSrH829Y-WECvbkg-210" value="" style="edgeStyle=orthogonalEdgeStyle;rounded=0;orthogonalLoop=1;jettySize=auto;html=1;" edge="1" parent="1" source="8dTDUSrH829Y-WECvbkg-213" target="8dTDUSrH829Y-WECvbkg-225">
          <mxGeometry relative="1" as="geometry" />
        </mxCell>
        <mxCell id="8dTDUSrH829Y-WECvbkg-211" style="edgeStyle=orthogonalEdgeStyle;rounded=0;orthogonalLoop=1;jettySize=auto;html=1;entryX=0;entryY=0.5;entryDx=0;entryDy=0;" edge="1" parent="1" source="8dTDUSrH829Y-WECvbkg-213" target="8dTDUSrH829Y-WECvbkg-190">
          <mxGeometry relative="1" as="geometry">
            <Array as="points">
              <mxPoint x="3010" y="871" />
              <mxPoint x="3010" y="601" />
            </Array>
          </mxGeometry>
        </mxCell>
        <mxCell id="8dTDUSrH829Y-WECvbkg-212" value="Recurring Payments" style="edgeLabel;html=1;align=center;verticalAlign=middle;resizable=0;points=[];" vertex="1" connectable="0" parent="8dTDUSrH829Y-WECvbkg-211">
          <mxGeometry x="-0.2122" relative="1" as="geometry">
            <mxPoint y="1" as="offset" />
          </mxGeometry>
        </mxCell>
        <mxCell id="8dTDUSrH829Y-WECvbkg-213" value="Q-Spots" style="rounded=1;whiteSpace=wrap;html=1;fillColor=#dae8fc;strokeColor=#6c8ebf;" vertex="1" parent="1">
          <mxGeometry x="3120" y="841" width="200" height="60" as="geometry" />
        </mxCell>
        <mxCell id="8dTDUSrH829Y-WECvbkg-214" value="" style="edgeStyle=orthogonalEdgeStyle;rounded=0;orthogonalLoop=1;jettySize=auto;html=1;" edge="1" parent="1" source="8dTDUSrH829Y-WECvbkg-216" target="8dTDUSrH829Y-WECvbkg-213">
          <mxGeometry relative="1" as="geometry" />
        </mxCell>
        <mxCell id="8dTDUSrH829Y-WECvbkg-215" style="edgeStyle=orthogonalEdgeStyle;rounded=0;orthogonalLoop=1;jettySize=auto;html=1;entryX=0.5;entryY=1;entryDx=0;entryDy=0;" edge="1" parent="1" source="8dTDUSrH829Y-WECvbkg-216" target="8dTDUSrH829Y-WECvbkg-217">
          <mxGeometry relative="1" as="geometry">
            <mxPoint x="2800" y="561" as="targetPoint" />
          </mxGeometry>
        </mxCell>
        <mxCell id="8dTDUSrH829Y-WECvbkg-216" value="Usage&lt;br&gt;NFT / Cert / Attestation" style="ellipse;whiteSpace=wrap;html=1;aspect=fixed;fillColor=#d5e8d4;strokeColor=#82b366;" vertex="1" parent="1">
          <mxGeometry x="3175" y="681" width="90" height="90" as="geometry" />
        </mxCell>
        <mxCell id="8dTDUSrH829Y-WECvbkg-217" value="DID" style="rounded=1;whiteSpace=wrap;html=1;fillColor=#dae8fc;strokeColor=#6c8ebf;" vertex="1" parent="1">
          <mxGeometry x="2700" y="380" width="200" height="60" as="geometry" />
        </mxCell>
        <mxCell id="8dTDUSrH829Y-WECvbkg-218" style="edgeStyle=orthogonalEdgeStyle;rounded=0;orthogonalLoop=1;jettySize=auto;html=1;entryX=1;entryY=0.5;entryDx=0;entryDy=0;" edge="1" parent="1" source="8dTDUSrH829Y-WECvbkg-220" target="8dTDUSrH829Y-WECvbkg-216">
          <mxGeometry relative="1" as="geometry">
            <Array as="points">
              <mxPoint x="3394" y="726" />
            </Array>
          </mxGeometry>
        </mxCell>
        <mxCell id="8dTDUSrH829Y-WECvbkg-219" value="" style="edgeStyle=orthogonalEdgeStyle;rounded=0;orthogonalLoop=1;jettySize=auto;html=1;" edge="1" parent="1" source="8dTDUSrH829Y-WECvbkg-220" target="8dTDUSrH829Y-WECvbkg-237">
          <mxGeometry relative="1" as="geometry" />
        </mxCell>
        <mxCell id="8dTDUSrH829Y-WECvbkg-220" value="Pay" style="ellipse;whiteSpace=wrap;html=1;aspect=fixed;fillColor=#d5e8d4;strokeColor=#82b366;" vertex="1" parent="1">
          <mxGeometry x="3354" y="561" width="80" height="80" as="geometry" />
        </mxCell>
        <mxCell id="8dTDUSrH829Y-WECvbkg-221" value="" style="edgeStyle=orthogonalEdgeStyle;rounded=0;orthogonalLoop=1;jettySize=auto;html=1;" edge="1" parent="1" source="8dTDUSrH829Y-WECvbkg-225" target="8dTDUSrH829Y-WECvbkg-192">
          <mxGeometry relative="1" as="geometry" />
        </mxCell>
        <mxCell id="8dTDUSrH829Y-WECvbkg-222" value="Yes" style="edgeLabel;html=1;align=center;verticalAlign=middle;resizable=0;points=[];" vertex="1" connectable="0" parent="8dTDUSrH829Y-WECvbkg-221">
          <mxGeometry x="-0.2" y="2" relative="1" as="geometry">
            <mxPoint as="offset" />
          </mxGeometry>
        </mxCell>
        <mxCell id="8dTDUSrH829Y-WECvbkg-223" value="" style="edgeStyle=orthogonalEdgeStyle;rounded=0;orthogonalLoop=1;jettySize=auto;html=1;" edge="1" parent="1" source="8dTDUSrH829Y-WECvbkg-225" target="8dTDUSrH829Y-WECvbkg-226">
          <mxGeometry relative="1" as="geometry" />
        </mxCell>
        <mxCell id="8dTDUSrH829Y-WECvbkg-224" value="Connectivity" style="edgeLabel;html=1;align=center;verticalAlign=middle;resizable=0;points=[];" vertex="1" connectable="0" parent="8dTDUSrH829Y-WECvbkg-223">
          <mxGeometry x="-0.5971" y="-1" relative="1" as="geometry">
            <mxPoint x="42" y="-1" as="offset" />
          </mxGeometry>
        </mxCell>
        <mxCell id="8dTDUSrH829Y-WECvbkg-225" value="Issues" style="rhombus;whiteSpace=wrap;html=1;" vertex="1" parent="1">
          <mxGeometry x="3180" y="951" width="80" height="80" as="geometry" />
        </mxCell>
        <mxCell id="8dTDUSrH829Y-WECvbkg-226" value="" style="verticalLabelPosition=bottom;html=1;verticalAlign=top;align=center;strokeColor=none;fillColor=#00BEF2;shape=mxgraph.azure.mobile;pointerEvents=1;" vertex="1" parent="1">
          <mxGeometry x="3399" y="966" width="35" height="50" as="geometry" />
        </mxCell>
        <mxCell id="8dTDUSrH829Y-WECvbkg-227" value="" style="edgeStyle=orthogonalEdgeStyle;rounded=0;orthogonalLoop=1;jettySize=auto;html=1;" edge="1" parent="1" source="8dTDUSrH829Y-WECvbkg-229" target="8dTDUSrH829Y-WECvbkg-195">
          <mxGeometry relative="1" as="geometry" />
        </mxCell>
        <mxCell id="8dTDUSrH829Y-WECvbkg-228" style="edgeStyle=orthogonalEdgeStyle;rounded=0;orthogonalLoop=1;jettySize=auto;html=1;" edge="1" parent="1" source="8dTDUSrH829Y-WECvbkg-229" target="8dTDUSrH829Y-WECvbkg-234">
          <mxGeometry relative="1" as="geometry" />
        </mxCell>
        <mxCell id="8dTDUSrH829Y-WECvbkg-229" value="Valid" style="rhombus;whiteSpace=wrap;html=1;" vertex="1" parent="1">
          <mxGeometry x="3180" y="1181" width="80" height="80" as="geometry" />
        </mxCell>
        <mxCell id="8dTDUSrH829Y-WECvbkg-230" value="Stake" style="ellipse;whiteSpace=wrap;html=1;aspect=fixed;fillColor=#d5e8d4;strokeColor=#82b366;" vertex="1" parent="1">
          <mxGeometry x="3354" y="451" width="80" height="80" as="geometry" />
        </mxCell>
        <mxCell id="8dTDUSrH829Y-WECvbkg-231" style="edgeStyle=orthogonalEdgeStyle;rounded=0;orthogonalLoop=1;jettySize=auto;html=1;" edge="1" parent="1" source="8dTDUSrH829Y-WECvbkg-232" target="8dTDUSrH829Y-WECvbkg-198">
          <mxGeometry relative="1" as="geometry" />
        </mxCell>
        <mxCell id="8dTDUSrH829Y-WECvbkg-232" value="Provider" style="shape=umlActor;verticalLabelPosition=bottom;verticalAlign=top;html=1;outlineConnect=0;" vertex="1" parent="1">
          <mxGeometry x="3931" y="461" width="30" height="60" as="geometry" />
        </mxCell>
        <mxCell id="8dTDUSrH829Y-WECvbkg-233" style="edgeStyle=orthogonalEdgeStyle;rounded=0;orthogonalLoop=1;jettySize=auto;html=1;" edge="1" parent="1" source="8dTDUSrH829Y-WECvbkg-234" target="8dTDUSrH829Y-WECvbkg-198">
          <mxGeometry relative="1" as="geometry" />
        </mxCell>
        <mxCell id="8dTDUSrH829Y-WECvbkg-234" value="Delist" style="rounded=1;whiteSpace=wrap;html=1;fillColor=#f8cecc;strokeColor=#b85450;" vertex="1" parent="1">
          <mxGeometry x="3701" y="1191" width="120" height="60" as="geometry" />
        </mxCell>
        <mxCell id="8dTDUSrH829Y-WECvbkg-235" value="" style="edgeStyle=orthogonalEdgeStyle;rounded=0;orthogonalLoop=1;jettySize=auto;html=1;entryX=1;entryY=0.5;entryDx=0;entryDy=0;" edge="1" parent="1" source="8dTDUSrH829Y-WECvbkg-198" target="8dTDUSrH829Y-WECvbkg-236">
          <mxGeometry relative="1" as="geometry">
            <mxPoint x="3661" y="491" as="sourcePoint" />
            <mxPoint x="3434" y="491" as="targetPoint" />
          </mxGeometry>
        </mxCell>
        <mxCell id="8dTDUSrH829Y-WECvbkg-236" value="Relist" style="rounded=1;whiteSpace=wrap;html=1;fillColor=#f8cecc;strokeColor=#b85450;" vertex="1" parent="1">
          <mxGeometry x="3490" y="461" width="120" height="60" as="geometry" />
        </mxCell>
        <mxCell id="8dTDUSrH829Y-WECvbkg-237" value="Earning" style="rounded=1;whiteSpace=wrap;html=1;fillColor=#f8cecc;strokeColor=#b85450;" vertex="1" parent="1">
          <mxGeometry x="3490" y="571" width="120" height="60" as="geometry" />
        </mxCell>
        <mxCell id="8dTDUSrH829Y-WECvbkg-238" value="" style="edgeStyle=orthogonalEdgeStyle;rounded=0;orthogonalLoop=1;jettySize=auto;html=1;" edge="1" parent="1" source="8dTDUSrH829Y-WECvbkg-181" target="8dTDUSrH829Y-WECvbkg-239">
          <mxGeometry relative="1" as="geometry">
            <mxPoint x="2370" y="330" as="sourcePoint" />
            <mxPoint x="2500" y="330" as="targetPoint" />
          </mxGeometry>
        </mxCell>
        <mxCell id="8dTDUSrH829Y-WECvbkg-239" value="1" style="ellipse;whiteSpace=wrap;html=1;aspect=fixed;rotation=0;gradientColor=#223548;strokeColor=none;gradientDirection=east;fillColor=#5b738b;rounded=0;pointerEvents=0;fontFamily=Helvetica;fontSize=16;fontColor=#FFFFFF;spacingTop=4;spacingBottom=4;spacingLeft=4;spacingRight=4;points=[];fontStyle=1" vertex="1" parent="1">
          <mxGeometry x="2415" y="315" width="30" height="30" as="geometry" />
        </mxCell>
        <mxCell id="8dTDUSrH829Y-WECvbkg-240" value="" style="edgeStyle=orthogonalEdgeStyle;rounded=0;orthogonalLoop=1;jettySize=auto;html=1;" edge="1" parent="1" source="8dTDUSrH829Y-WECvbkg-183" target="8dTDUSrH829Y-WECvbkg-241">
          <mxGeometry relative="1" as="geometry">
            <mxPoint x="2620" y="330" as="sourcePoint" />
            <mxPoint x="2700" y="330" as="targetPoint" />
          </mxGeometry>
        </mxCell>
        <mxCell id="8dTDUSrH829Y-WECvbkg-241" value="2" style="ellipse;whiteSpace=wrap;html=1;aspect=fixed;rotation=0;gradientColor=#223548;strokeColor=none;gradientDirection=east;fillColor=#5b738b;rounded=0;pointerEvents=0;fontFamily=Helvetica;fontSize=16;fontColor=#FFFFFF;spacingTop=4;spacingBottom=4;spacingLeft=4;spacingRight=4;points=[];fontStyle=1" vertex="1" parent="1">
          <mxGeometry x="2635" y="316" width="30" height="30" as="geometry" />
        </mxCell>
        <mxCell id="8dTDUSrH829Y-WECvbkg-242" value="3" style="ellipse;whiteSpace=wrap;html=1;aspect=fixed;rotation=0;gradientColor=#223548;strokeColor=none;gradientDirection=east;fillColor=#5b738b;rounded=0;pointerEvents=0;fontFamily=Helvetica;fontSize=16;fontColor=#FFFFFF;spacingTop=4;spacingBottom=4;spacingLeft=4;spacingRight=4;points=[];fontStyle=1" vertex="1" parent="1">
          <mxGeometry x="2950" y="316" width="30" height="30" as="geometry" />
        </mxCell>
        <mxCell id="8dTDUSrH829Y-WECvbkg-243" value="4" style="ellipse;whiteSpace=wrap;html=1;aspect=fixed;rotation=0;gradientColor=#223548;strokeColor=none;gradientDirection=east;fillColor=#5b738b;rounded=0;pointerEvents=0;fontFamily=Helvetica;fontSize=16;fontColor=#FFFFFF;spacingTop=4;spacingBottom=4;spacingLeft=4;spacingRight=4;points=[];fontStyle=1" vertex="1" parent="1">
          <mxGeometry x="3080" y="316" width="30" height="30" as="geometry" />
        </mxCell>
        <mxCell id="8dTDUSrH829Y-WECvbkg-244" value="5" style="ellipse;whiteSpace=wrap;html=1;aspect=fixed;rotation=0;gradientColor=#223548;strokeColor=none;gradientDirection=east;fillColor=#5b738b;rounded=0;pointerEvents=0;fontFamily=Helvetica;fontSize=16;fontColor=#FFFFFF;spacingTop=4;spacingBottom=4;spacingLeft=4;spacingRight=4;points=[];fontStyle=1" vertex="1" parent="1">
          <mxGeometry x="3325" y="317" width="30" height="30" as="geometry" />
        </mxCell>
        <mxCell id="8dTDUSrH829Y-WECvbkg-245" value="6" style="ellipse;whiteSpace=wrap;html=1;aspect=fixed;rotation=0;gradientColor=#223548;strokeColor=none;gradientDirection=east;fillColor=#5b738b;rounded=0;pointerEvents=0;fontFamily=Helvetica;fontSize=16;fontColor=#FFFFFF;spacingTop=4;spacingBottom=4;spacingLeft=4;spacingRight=4;points=[];fontStyle=1" vertex="1" parent="1">
          <mxGeometry x="3205" y="515" width="30" height="30" as="geometry" />
        </mxCell>
        <mxCell id="8dTDUSrH829Y-WECvbkg-246" value="7" style="ellipse;whiteSpace=wrap;html=1;aspect=fixed;rotation=0;gradientColor=#223548;strokeColor=none;gradientDirection=east;fillColor=#5b738b;rounded=0;pointerEvents=0;fontFamily=Helvetica;fontSize=16;fontColor=#FFFFFF;spacingTop=4;spacingBottom=4;spacingLeft=4;spacingRight=4;points=[];fontStyle=1" vertex="1" parent="1">
          <mxGeometry x="3325" y="620" width="30" height="30" as="geometry" />
        </mxCell>
        <mxCell id="8dTDUSrH829Y-WECvbkg-247" value="8" style="ellipse;whiteSpace=wrap;html=1;aspect=fixed;rotation=0;gradientColor=#223548;strokeColor=none;gradientDirection=east;fillColor=#5b738b;rounded=0;pointerEvents=0;fontFamily=Helvetica;fontSize=16;fontColor=#FFFFFF;spacingTop=4;spacingBottom=4;spacingLeft=4;spacingRight=4;points=[];fontStyle=1" vertex="1" parent="1">
          <mxGeometry x="3170" y="650" width="30" height="30" as="geometry" />
        </mxCell>
        <mxCell id="8dTDUSrH829Y-WECvbkg-248" value="9" style="ellipse;whiteSpace=wrap;html=1;aspect=fixed;rotation=0;gradientColor=#223548;strokeColor=none;gradientDirection=east;fillColor=#5b738b;rounded=0;pointerEvents=0;fontFamily=Helvetica;fontSize=16;fontColor=#FFFFFF;spacingTop=4;spacingBottom=4;spacingLeft=4;spacingRight=4;points=[];fontStyle=1" vertex="1" parent="1">
          <mxGeometry x="3170" y="800" width="30" height="30" as="geometry" />
        </mxCell>
        <mxCell id="8dTDUSrH829Y-WECvbkg-249" value="10" style="ellipse;whiteSpace=wrap;html=1;aspect=fixed;rotation=0;gradientColor=#223548;strokeColor=none;gradientDirection=east;fillColor=#5b738b;rounded=0;pointerEvents=0;fontFamily=Helvetica;fontSize=16;fontColor=#FFFFFF;spacingTop=4;spacingBottom=4;spacingLeft=4;spacingRight=4;points=[];fontStyle=1" vertex="1" parent="1">
          <mxGeometry x="3310" y="940" width="30" height="30" as="geometry" />
        </mxCell>
        <mxCell id="8dTDUSrH829Y-WECvbkg-250" value="11" style="ellipse;whiteSpace=wrap;html=1;aspect=fixed;rotation=0;gradientColor=#223548;strokeColor=none;gradientDirection=east;fillColor=#5b738b;rounded=0;pointerEvents=0;fontFamily=Helvetica;fontSize=16;fontColor=#FFFFFF;spacingTop=4;spacingBottom=4;spacingLeft=4;spacingRight=4;points=[];fontStyle=1" vertex="1" parent="1">
          <mxGeometry x="3171" y="1040" width="30" height="30" as="geometry" />
        </mxCell>
        <mxCell id="8dTDUSrH829Y-WECvbkg-251" value="12" style="ellipse;whiteSpace=wrap;html=1;aspect=fixed;rotation=0;gradientColor=#223548;strokeColor=none;gradientDirection=east;fillColor=#5b738b;rounded=0;pointerEvents=0;fontFamily=Helvetica;fontSize=16;fontColor=#FFFFFF;spacingTop=4;spacingBottom=4;spacingLeft=4;spacingRight=4;points=[];fontStyle=1" vertex="1" parent="1">
          <mxGeometry x="3171" y="1290" width="30" height="30" as="geometry" />
        </mxCell>
        <mxCell id="8dTDUSrH829Y-WECvbkg-252" value="13" style="ellipse;whiteSpace=wrap;html=1;aspect=fixed;rotation=0;gradientColor=#223548;strokeColor=none;gradientDirection=east;fillColor=#5b738b;rounded=0;pointerEvents=0;fontFamily=Helvetica;fontSize=16;fontColor=#FFFFFF;spacingTop=4;spacingBottom=4;spacingLeft=4;spacingRight=4;points=[];fontStyle=1" vertex="1" parent="1">
          <mxGeometry x="3280" y="1181" width="30" height="30" as="geometry" />
        </mxCell>
        <mxCell id="8dTDUSrH829Y-WECvbkg-253" value="6" style="ellipse;whiteSpace=wrap;html=1;aspect=fixed;rotation=0;gradientColor=#0057D2;strokeColor=none;gradientDirection=east;fillColor=#2395FF;rounded=0;pointerEvents=0;fontFamily=Helvetica;fontSize=16;fontColor=#FFFFFF;spacingTop=4;spacingBottom=4;spacingLeft=4;spacingRight=4;points=[];fontStyle=1" vertex="1" parent="1">
          <mxGeometry x="3880" y="500" width="30" height="30" as="geometry" />
        </mxCell>
        <mxCell id="8dTDUSrH829Y-WECvbkg-254" value="7" style="ellipse;whiteSpace=wrap;html=1;aspect=fixed;rotation=0;gradientColor=#0057D2;strokeColor=none;gradientDirection=east;fillColor=#2395FF;rounded=0;pointerEvents=0;fontFamily=Helvetica;fontSize=16;fontColor=#FFFFFF;spacingTop=4;spacingBottom=4;spacingLeft=4;spacingRight=4;points=[];fontStyle=1" vertex="1" parent="1">
          <mxGeometry x="3570" y="641" width="30" height="30" as="geometry" />
        </mxCell>
        <mxCell id="8dTDUSrH829Y-WECvbkg-255" value="8" style="ellipse;whiteSpace=wrap;html=1;aspect=fixed;rotation=0;gradientColor=#0057D2;strokeColor=none;gradientDirection=east;fillColor=#2395FF;rounded=0;pointerEvents=0;fontFamily=Helvetica;fontSize=16;fontColor=#FFFFFF;spacingTop=4;spacingBottom=4;spacingLeft=4;spacingRight=4;points=[];fontStyle=1" vertex="1" parent="1">
          <mxGeometry x="3570" y="530" width="30" height="30" as="geometry" />
        </mxCell>
        <mxCell id="8dTDUSrH829Y-WECvbkg-258" style="edgeStyle=orthogonalEdgeStyle;rounded=0;orthogonalLoop=1;jettySize=auto;html=1;entryX=0.5;entryY=0;entryDx=0;entryDy=0;" edge="1" parent="1" source="8dTDUSrH829Y-WECvbkg-263" target="8dTDUSrH829Y-WECvbkg-12">
          <mxGeometry relative="1" as="geometry">
            <Array as="points">
              <mxPoint x="2490" y="1570" />
            </Array>
          </mxGeometry>
        </mxCell>
        <mxCell id="8dTDUSrH829Y-WECvbkg-256" value="Earning" style="rounded=1;whiteSpace=wrap;html=1;fillColor=#f8cecc;strokeColor=#b85450;" vertex="1" parent="1">
          <mxGeometry x="3515" y="1910" width="120" height="60" as="geometry" />
        </mxCell>
        <mxCell id="8dTDUSrH829Y-WECvbkg-259" value="6" style="ellipse;whiteSpace=wrap;html=1;aspect=fixed;rotation=0;gradientColor=#223548;strokeColor=none;gradientDirection=east;fillColor=#5b738b;rounded=0;pointerEvents=0;fontFamily=Helvetica;fontSize=16;fontColor=#FFFFFF;spacingTop=4;spacingBottom=4;spacingLeft=4;spacingRight=4;points=[];fontStyle=1;align=center;verticalAlign=middle;" vertex="1" parent="1">
          <mxGeometry x="2475" y="1870" width="30" height="30" as="geometry" />
        </mxCell>
        <mxCell id="8dTDUSrH829Y-WECvbkg-260" value="7" style="ellipse;whiteSpace=wrap;html=1;aspect=fixed;rotation=0;gradientColor=#223548;strokeColor=none;gradientDirection=east;fillColor=#5b738b;rounded=0;pointerEvents=0;fontFamily=Helvetica;fontSize=16;fontColor=#FFFFFF;spacingTop=4;spacingBottom=4;spacingLeft=4;spacingRight=4;points=[];fontStyle=1;align=center;verticalAlign=middle;" vertex="1" parent="1">
          <mxGeometry x="2705" y="1870" width="30" height="30" as="geometry" />
        </mxCell>
        <mxCell id="8dTDUSrH829Y-WECvbkg-261" value="8" style="ellipse;whiteSpace=wrap;html=1;aspect=fixed;rotation=0;gradientColor=#223548;strokeColor=none;gradientDirection=east;fillColor=#5b738b;rounded=0;pointerEvents=0;fontFamily=Helvetica;fontSize=16;fontColor=#FFFFFF;spacingTop=4;spacingBottom=4;spacingLeft=4;spacingRight=4;points=[];fontStyle=1;align=center;verticalAlign=middle;" vertex="1" parent="1">
          <mxGeometry x="2790" y="2065" width="30" height="30" as="geometry" />
        </mxCell>
        <mxCell id="8dTDUSrH829Y-WECvbkg-262" value="9" style="ellipse;whiteSpace=wrap;html=1;aspect=fixed;rotation=0;gradientColor=#223548;strokeColor=none;gradientDirection=east;fillColor=#5b738b;rounded=0;pointerEvents=0;fontFamily=Helvetica;fontSize=16;fontColor=#FFFFFF;spacingTop=4;spacingBottom=4;spacingLeft=4;spacingRight=4;points=[];fontStyle=1;align=center;verticalAlign=middle;" vertex="1" parent="1">
          <mxGeometry x="3069" y="1860" width="30" height="30" as="geometry" />
        </mxCell>
        <mxCell id="8dTDUSrH829Y-WECvbkg-264" value="" style="edgeStyle=orthogonalEdgeStyle;rounded=0;orthogonalLoop=1;jettySize=auto;html=1;entryX=0.5;entryY=0;entryDx=0;entryDy=0;" edge="1" parent="1" source="8dTDUSrH829Y-WECvbkg-256" target="8dTDUSrH829Y-WECvbkg-263">
          <mxGeometry relative="1" as="geometry">
            <mxPoint x="3575" y="1910" as="sourcePoint" />
            <mxPoint x="2490" y="1680" as="targetPoint" />
            <Array as="points">
              <mxPoint x="3575" y="1570" />
            </Array>
          </mxGeometry>
        </mxCell>
        <mxCell id="8dTDUSrH829Y-WECvbkg-263" value="Withdraw" style="ellipse;whiteSpace=wrap;html=1;aspect=fixed;fillColor=#d5e8d4;strokeColor=#82b366;" vertex="1" parent="1">
          <mxGeometry x="3535" y="1720" width="80" height="80" as="geometry" />
        </mxCell>
        <mxCell id="8dTDUSrH829Y-WECvbkg-265" value="10" style="ellipse;whiteSpace=wrap;html=1;aspect=fixed;rotation=0;gradientColor=#223548;strokeColor=none;gradientDirection=east;fillColor=#5b738b;rounded=0;pointerEvents=0;fontFamily=Helvetica;fontSize=16;fontColor=#FFFFFF;spacingTop=4;spacingBottom=4;spacingLeft=4;spacingRight=4;points=[];fontStyle=1;align=center;verticalAlign=middle;" vertex="1" parent="1">
          <mxGeometry x="3350" y="1990" width="30" height="30" as="geometry" />
        </mxCell>
        <mxCell id="8dTDUSrH829Y-WECvbkg-266" value="11" style="ellipse;whiteSpace=wrap;html=1;aspect=fixed;rotation=0;gradientColor=#223548;strokeColor=none;gradientDirection=east;fillColor=#5b738b;rounded=0;pointerEvents=0;fontFamily=Helvetica;fontSize=16;fontColor=#FFFFFF;spacingTop=4;spacingBottom=4;spacingLeft=4;spacingRight=4;points=[];fontStyle=1;align=center;verticalAlign=middle;" vertex="1" parent="1">
          <mxGeometry x="3641" y="1740" width="30" height="30" as="geometry" />
        </mxCell>
        <mxCell id="8dTDUSrH829Y-WECvbkg-267" value="&lt;h1 style=&quot;margin-top: 0px;&quot;&gt;User Journey&lt;/h1&gt;" style="text;html=1;whiteSpace=wrap;overflow=hidden;rounded=0;fontSize=18;" vertex="1" parent="1">
          <mxGeometry x="520" y="60" width="250" height="70" as="geometry" />
        </mxCell>
        <mxCell id="8dTDUSrH829Y-WECvbkg-269" value="&lt;h1 style=&quot;margin-top: 0px;&quot;&gt;Provider Journey&lt;/h1&gt;" style="text;html=1;whiteSpace=wrap;overflow=hidden;rounded=0;fontSize=18;" vertex="1" parent="1">
          <mxGeometry x="2715" y="1460" width="300" height="70" as="geometry" />
        </mxCell>
      </root>
    </mxGraphModel>
  </diagram>
</mxfile>
